<?xml version="1.0" standalone="no"?>
<!DOCTYPE svg PUBLIC "-//W3C//DTD SVG 20010904//EN"
 "http://www.w3.org/TR/2001/REC-SVG-20010904/DTD/svg10.dtd">
<svg version="1.0" xmlns="http://www.w3.org/2000/svg"
 width="1024.000000pt" height="1024.000000pt" viewBox="0 0 1024.000000 1024.000000"
 preserveAspectRatio="xMidYMid meet">

<g transform="translate(0.000000,1024.000000) scale(0.100000,-0.100000)"
fill="#000000" stroke="none">
<path d="M4727 6536 c-55 -15 -100 -54 -130 -111 -18 -36 -20 -58 -21 -237 -1
-109 -3 -198 -6 -198 -3 0 -44 39 -90 86 -153 154 -467 387 -560 415 -80 24
-190 -17 -245 -91 -28 -39 -49 -126 -39 -166 21 -86 53 -121 207 -223 303
-202 494 -380 639 -596 l60 -90 -403 -5 -404 -5 -46 -27 c-136 -80 -154 -261
-35 -366 57 -50 99 -54 514 -50 204 2 372 1 372 -1 0 -2 -19 -31 -41 -65 -156
-231 -358 -421 -662 -626 -148 -99 -177 -131 -198 -212 -18 -74 13 -168 71
-216 48 -40 94 -54 160 -50 60 3 75 9 154 58 129 81 305 221 432 343 l112 107
4 -212 c3 -187 6 -218 24 -258 64 -140 241 -173 349 -65 23 22 46 58 53 81 9
32 12 339 12 1330 0 1229 -1 1291 -19 1329 -48 105 -152 153 -264 121z"/>
<path d="M5473 6541 c-51 -13 -96 -44 -128 -90 l-30 -43 -3 -1301 c-2 -997 0
-1312 9 -1346 8 -27 28 -61 53 -87 82 -84 202 -85 292 -2 65 60 74 100 74 341
l0 200 123 -119 c164 -160 357 -308 487 -374 80 -41 187 -25 254 38 34 32 76
116 76 153 0 99 -58 173 -215 274 -266 171 -498 391 -638 605 l-49 75 399 5
c435 5 436 6 497 66 59 59 79 142 55 229 -15 53 -91 129 -144 144 -26 7 -174
11 -423 11 l-383 0 26 49 c75 136 274 359 434 486 41 32 142 104 225 160 122
83 157 111 181 150 71 114 10 274 -123 319 -58 20 -89 20 -149 0 -102 -35
-329 -203 -514 -382 l-119 -114 0 183 c0 101 -5 201 -11 222 -11 42 -68 111
-108 132 -35 18 -108 26 -148 16z"/>
</g>
</svg>
