<?xml version="1.0" standalone="no"?>
<!DOCTYPE svg PUBLIC "-//W3C//DTD SVG 20010904//EN"
 "http://www.w3.org/TR/2001/REC-SVG-20010904/DTD/svg10.dtd">
<svg version="1.0" xmlns="http://www.w3.org/2000/svg"
 width="550.000000pt" height="703.000000pt" viewBox="0 0 550.000000 703.000000"
 preserveAspectRatio="xMidYMid meet">

<g transform="translate(0.000000,703.000000) scale(0.100000,-0.100000)"
fill="#000000" stroke="none">
<path d="M1178 6763 l-828 -3 0 -585 0 -585 1595 2 c877 2 1595 0 1595 -5 0
-4 -35 -51 -77 -104 -43 -53 -143 -178 -223 -278 -80 -100 -278 -348 -441
-551 -162 -203 -486 -607 -719 -899 -233 -291 -449 -561 -480 -600 -31 -38
-254 -317 -496 -619 -241 -301 -468 -585 -504 -631 -36 -46 -165 -207 -288
-360 l-222 -276 0 -516 0 -516 1853 6 c1018 4 2215 7 2660 7 l807 0 -2 531 -3
530 -1732 -1 c-953 0 -1733 2 -1733 5 0 2 107 139 238 302 130 164 246 309
257 324 11 15 63 80 116 145 86 108 352 441 824 1035 245 309 751 944 1110
1394 959 1202 877 1094 871 1134 -3 20 -5 280 -6 579 l0 542 -1672 -2 c-920
-2 -2045 -4 -2500 -5z"/>
</g>
</svg>
